<svg width="20" height="20" viewBox="0 0 20 20" fill="none" xmlns="http://www.w3.org/2000/svg">
<path d="M10 0C15.5228 0 20 4.47715 20 10C20 15.5228 15.5228 20 10 20C4.47715 20 0 15.5228 0 10C0 4.47715 4.47715 0 10 0ZM10 1.39535C5.24778 1.39535 1.39535 5.24778 1.39535 10C1.39535 14.7522 5.24778 18.6047 10 18.6047C14.7522 18.6047 18.6047 14.7522 18.6047 10C18.6047 5.24778 14.7522 1.39535 10 1.39535ZM10 5.47456C10.3766 5.47456 10.6818 5.77982 10.6818 6.15638L10.681 9.279L13.805 9.27959C14.1816 9.27959 14.4869 9.58485 14.4869 9.96141C14.4869 10.338 14.1816 10.6432 13.805 10.6432L10.681 10.643L10.6818 13.7664C10.6818 14.143 10.3766 14.4483 10 14.4483C9.62344 14.4483 9.31818 14.143 9.31818 13.7664L9.318 10.643L6.19497 10.6432C5.81841 10.6432 5.51315 10.338 5.51315 9.96141C5.51315 9.58485 5.81841 9.27959 6.19497 9.27959L9.318 9.279L9.31818 6.15638C9.31818 5.77982 9.62344 5.47456 10 5.47456Z" fill="white"/>
</svg>
