<svg width="22" height="22" viewBox="0 0 22 22" fill="none" xmlns="http://www.w3.org/2000/svg">
<path d="M1 5.21053C1 2.88512 2.88512 1 5.21053 1C7.53594 1 9.42105 2.88512 9.42105 5.21053C9.42105 7.53594 7.53594 9.42105 5.21053 9.42105C2.88512 9.42105 1 7.53594 1 5.21053Z" stroke="white" stroke-width="2"/>
<path d="M12.5789 16.7895C12.5789 14.4641 14.4641 12.5789 16.7894 12.5789C19.1148 12.5789 21 14.4641 21 16.7895C21 19.1148 19.1148 21 16.7894 21C14.4641 21 12.5789 19.1148 12.5789 16.7895Z" stroke="white" stroke-width="2"/>
<path d="M21 5.21053C21 3.22566 21 2.23323 20.3833 1.61662C19.7667 1 18.7743 1 16.7894 1C14.8046 1 13.8122 1 13.1956 1.61662C12.5789 2.23323 12.5789 3.22566 12.5789 5.21053C12.5789 7.19539 12.5789 8.18782 13.1956 8.80443C13.8122 9.42105 14.8046 9.42105 16.7894 9.42105C18.7743 9.42105 19.7667 9.42105 20.3833 8.80443C21 8.18782 21 7.19539 21 5.21053Z" stroke="white" stroke-width="2"/>
<path d="M9.42105 16.7895C9.42105 14.8046 9.42105 13.8122 8.80443 13.1956C8.18782 12.5789 7.19539 12.5789 5.21053 12.5789C3.22566 12.5789 2.23323 12.5789 1.61662 13.1956C1 13.8122 1 14.8046 1 16.7895C1 18.7743 1 19.7667 1.61662 20.3834C2.23323 21 3.22566 21 5.21053 21C7.19539 21 8.18782 21 8.80443 20.3834C9.42105 19.7667 9.42105 18.7743 9.42105 16.7895Z" stroke="white" stroke-width="2"/>
</svg>
